<svg width="33" height="33" viewBox="0 0 33 33" fill="none" xmlns="http://www.w3.org/2000/svg">
<path d="M27.8672 6.82439C23.4597 3.5112 17.6017 2.75705 12.7353 3.75629C7.29092 -2.21827 1.18995 0.52979 0 1.31979C0 1.31979 4.18687 5.36758 3.50681 8.91281C-1.45005 14.6618 0.906352 21.0627 3.50681 24.0852C4.18687 27.6304 0 31.6782 0 31.6782C1.17849 32.4708 7.26285 35.2104 12.7353 29.2665C17.5908 30.2592 23.4489 29.5115 27.8672 26.1925C34.6998 21.2296 34.7221 11.8127 27.8672 6.82374V6.82439ZM16.854 26.1606C15.1501 26.1661 13.4529 25.9169 11.8061 25.4194L10.6734 26.6638C10.0443 27.3579 9.33981 27.9579 8.57712 28.4491C7.65177 28.9792 6.64653 29.3049 5.61457 29.4092C5.67186 29.2932 5.72228 29.1772 5.77327 29.0677C6.90649 26.6777 7.21205 24.5334 6.68993 22.6349C4.82624 20.9656 3.71077 18.8322 3.71077 16.4993C3.71077 11.1544 9.5969 6.82439 16.854 6.82439C24.1111 6.82439 29.9973 11.1544 29.9973 16.4993C29.9973 21.8442 24.1111 26.1606 16.854 26.1606ZM10.5485 18.8002C10.0282 18.8086 9.52617 18.582 9.15246 18.17C8.77874 17.758 8.56382 17.1943 8.55477 16.6023C8.51467 13.6437 12.4409 13.5792 12.4804 16.5313V16.5645C12.4828 16.8558 12.4347 17.1447 12.3389 17.4148C12.2431 17.6849 12.1015 17.9309 11.922 18.1386C11.7426 18.3464 11.529 18.5119 11.2933 18.6256C11.0576 18.7394 10.8045 18.7991 10.5485 18.8015V18.8002ZM14.7749 16.6023C14.7297 13.6437 18.6558 13.5727 18.7011 16.5247V16.5645C18.7234 19.5029 14.8202 19.5348 14.7749 16.6023ZM22.9894 18.8002C22.469 18.8086 21.9669 18.582 21.5931 18.17C21.2193 17.758 21.0042 17.1943 20.9951 16.6023C20.9555 13.6437 24.8817 13.5792 24.9212 16.5313V16.5645C24.9245 16.856 24.877 17.1454 24.7815 17.4159C24.686 17.6864 24.5444 17.9328 24.3648 18.1407C24.1852 18.3487 23.9712 18.5141 23.7351 18.6275C23.4991 18.741 23.2456 18.8001 22.9894 18.8015V18.8002Z" fill="white"/>
</svg>
